<?xml version="1.0" encoding="UTF-8" standalone="no"?>
<svg xmlns="http://www.w3.org/2000/svg" xmlns:xlink="http://www.w3.org/1999/xlink" version="1.1" width="562.21688" height="354.81136" viewBox="-57.10844 296.09432 562.21688 354.81136"><defs><linearGradient x1="194.24895" y1="215.79935" x2="192.9739" y2="754.71816" gradientUnits="userSpaceOnUse" id="color-1"><stop offset="0" stop-color="#ffffff"/><stop offset="1" stop-color="#d2ecff"/></linearGradient></defs><g fill="url(#color-1)" fill-rule="nonzero" font-family="none" font-weight="none" font-size="none"><g><path d="M-1.40009,445.45907c0,-82.21573 77.25711,-148.86475 172.55859,-148.86475c57.87152,0 109.0892,24.57674 140.39405,62.29179c8.1202,-1.90642 16.60244,-2.91679 25.32859,-2.91679c59.11171,0 107.03122,46.36406 107.03122,103.55702c0,5.34913 -0.41917,10.60353 -1.22747,15.73414c37.06529,16.37655 61.92355,46.54507 61.92355,81.05202c0,51.96623 -56.37673,94.09318 -125.92094,94.09318c-26.37917,0 -50.86381,-6.06122 -71.09572,-16.42155c-17.59443,10.24843 -40.29651,16.42155 -65.07913,16.42155c-26.60881,0 -50.81917,-7.11641 -68.88423,-18.75267c-24.21498,11.74358 -54.79935,18.75267 -88.04936,18.75267c-78.52799,0 -142.1875,-39.09554 -142.1875,-87.32233c0,-30.28512 25.10413,-56.96933 63.22972,-72.63224c-5.21061,-14.19468 -8.02137,-29.31019 -8.02137,-44.99204z" id="Path-1"/></g></g></svg>