<?xml version="1.0" encoding="UTF-8" standalone="no"?>
<svg xmlns="http://www.w3.org/2000/svg" xmlns:xlink="http://www.w3.org/1999/xlink" version="1.1" width="625.6694" height="513.02988" viewBox="-88.8347 216.98506 625.6694 513.02988"><defs><linearGradient x1="201.51179" y1="139.76863" x2="206.19684" y2="805.51359" gradientUnits="userSpaceOnUse" id="color-1"><stop offset="0" stop-color="#ffffff"/><stop offset="1" stop-color="#d5e8ff"/></linearGradient></defs><g fill="url(#color-1)" fill-rule="nonzero" font-family="none" font-weight="none" font-size="none"><g><path d="M127.61868,257.88488c21.17518,-24.31749 57.89913,-40.39982 99.65649,-40.39982c33.91379,0 64.5075,10.60806 86.14794,27.62035c12.51489,-9.06364 27.08871,-14.2599 42.64534,-14.2599c46.62318,0 84.41872,46.67273 84.41872,104.24647c0,18.29005 -3.81436,35.47997 -10.51435,50.42288c29.84454,15.05758 48.7635,37.44317 48.7635,62.43757c0,30.06711 -27.3776,56.35903 -68.21799,70.66057c55.41602,12.33268 91.71136,32.90601 91.71136,56.20263c0,11.22752 -8.4301,21.82251 -23.36782,31.16739c34.52223,11.82471 57.47283,32.78576 57.47283,56.67251c0,36.92544 -54.84422,66.85941 -122.49799,66.85941c-42.81717,0 -80.50354,-11.98992 -102.4033,-30.15384c-25.63535,18.48246 -63.28579,30.15384 -105.25364,30.15384c-35.36334,0 -67.66122,-8.28696 -92.28821,-21.95303c-16.98333,7.20153 -38.40033,11.49675 -61.67671,11.49675c-52.43757,0 -95.43837,-21.79914 -99.56924,-49.51725c-24.83152,-17.35932 -40.98031,-45.54788 -40.98031,-77.37106c0,-52.75571 44.38043,-95.52266 99.12646,-95.52266c3.81584,0 7.58132,0.20777 11.28492,0.61221c-4.59774,-8.92122 -7.08782,-18.46635 -7.08782,-28.38788c0,-29.17603 21.53313,-55.09704 54.87484,-71.4692c-12.67992,-7.57776 -20.90676,-17.94982 -22.04198,-29.49635c-22.39186,-11.31896 -37.02997,-30.0639 -37.02997,-51.27298c0,-34.56365 38.87592,-62.58303 86.83179,-62.58303c10.54275,0 20.64666,1.3542 29.99514,3.83442z" id="Path-1"/></g></g></svg>