<?xml version="1.0" encoding="UTF-8" standalone="no"?>
<svg xmlns="http://www.w3.org/2000/svg" xmlns:xlink="http://www.w3.org/1999/xlink" version="1.1" width="548.28411" height="302.5689" viewBox="-50.14237 322.27147 548.28411 302.5689"><defs><linearGradient x1="212.02085" y1="294.15973" x2="211.37249" y2="675.20631" gradientUnits="userSpaceOnUse" id="color-1"><stop offset="0" stop-color="#ffffff"/><stop offset="1" stop-color="#d2edff"/></linearGradient></defs><g fill="url(#color-1)" fill-rule="nonzero" font-family="none" font-weight="none" font-size="none"><g><path d="M220.11105,340.10605c16.15792,-10.97537 35.34485,-17.33458 55.92535,-17.33458c53.73644,0 97.97219,43.35401 103.59513,99.03424c40.72778,9.62333 69.88018,35.41053 69.88018,65.71093c0,6.97258 -1.54371,13.70619 -4.41694,20.05883c30.42543,5.99978 52.54697,24.20436 52.54697,45.73059c0,26.41348 -33.30663,47.82583 -74.39245,47.82583c-19.33947,0 -36.95532,-4.74427 -50.18522,-12.52123c-23.30281,7.91949 -51.12626,12.52123 -81.00957,12.52123c-26.59944,0 -51.56687,-3.64595 -73.16685,-10.03232c-25.00454,19.88519 -71.37155,33.2408 -124.43891,33.2408c-79.57932,0 -144.09111,-30.03372 -144.09111,-67.08219c0,-21.10312 20.93108,-39.93027 53.65537,-52.22729c-14.0501,-9.29289 -22.52968,-21.33985 -22.52968,-34.50234c0,-19.88763 19.35817,-37.2286 48.0402,-46.37104c9.53127,-54.58577 64.34226,-96.44204 130.5318,-96.44204c21.62767,0 42.04048,4.46891 60.05573,12.39058z" id="Path-1"/></g></g></svg>