<?xml version="1.0" encoding="UTF-8" standalone="no"?>
<!-- Created with Inkscape (http://www.inkscape.org/) -->

<svg
   width="226.73787mm"
   height="226.73787mm"
   viewBox="0 0 226.73786 226.73787"
   version="1.1"
   id="svg1"
   inkscape:version="1.4 (86a8ad7, 2024-10-11)"
   sodipodi:docname="logo_1.svg"
   inkscape:export-filename="logo_1.png"
   inkscape:export-xdpi="96"
   inkscape:export-ydpi="96"
   xmlns:inkscape="http://www.inkscape.org/namespaces/inkscape"
   xmlns:sodipodi="http://sodipodi.sourceforge.net/DTD/sodipodi-0.dtd"
   xmlns="http://www.w3.org/2000/svg"
   xmlns:svg="http://www.w3.org/2000/svg">
  <sodipodi:namedview
     id="namedview1"
     pagecolor="#505050"
     bordercolor="#ffffff"
     borderopacity="1"
     inkscape:showpageshadow="0"
     inkscape:pageopacity="0"
     inkscape:pagecheckerboard="1"
     inkscape:deskcolor="#505050"
     inkscape:document-units="mm"
     inkscape:zoom="0.97817977"
     inkscape:cx="385.92088"
     inkscape:cy="429.88008"
     inkscape:window-width="1920"
     inkscape:window-height="1017"
     inkscape:window-x="-8"
     inkscape:window-y="-8"
     inkscape:window-maximized="1"
     inkscape:current-layer="svg1" />
  <defs
     id="defs1">
    <inkscape:path-effect
       effect="spiro"
       id="path-effect9"
       is_visible="true"
       lpeversion="1" />
    <inkscape:path-effect
       effect="spiro"
       id="path-effect7"
       is_visible="true"
       lpeversion="1" />
    <inkscape:path-effect
       effect="spiro"
       id="path-effect5"
       is_visible="true"
       lpeversion="1" />
    <inkscape:path-effect
       effect="spiro"
       id="path-effect4"
       is_visible="true"
       lpeversion="1" />
    <inkscape:path-effect
       effect="spiro"
       id="path-effect2"
       is_visible="true"
       lpeversion="1" />
  </defs>
  <circle
     style="display:none;fill:#2d39a3;fill-opacity:1;stroke:#2da363;stroke-width:5.53018;stroke-linecap:round;stroke-linejoin:bevel"
     id="path8"
     cx="113.36893"
     cy="113.36893"
     r="110.60384" />
  <g
     inkscape:label="Calque 1"
     inkscape:groupmode="layer"
     id="layer1"
     transform="matrix(1.1860774,0,0,1.1860774,-9.675044,-59.636366)">
    <path
       style="fill:none;fill-opacity:1;stroke:#2da363;stroke-width:5;stroke-linecap:round;stroke-linejoin:bevel;stroke-dasharray:none;stroke-opacity:1;paint-order:normal"
       d="m 114.51476,106.97366 c -2.98038,-1.70343 -6.40073,-2.62938 -9.8334,-2.66209 -3.43267,-0.0327 -6.870044,0.8279 -9.882341,2.47422 -3.012297,1.64633 -5.592824,4.07471 -7.41894,6.98153 -1.826117,2.90683 -2.893764,6.28563 -3.069454,9.71396 -0.289164,5.64261 1.879201,11.30799 5.611955,15.54935 3.732754,4.24137 8.950988,7.07564 14.47897,8.24357 5.52798,1.16793 11.34347,0.71351 16.74006,-0.95965 5.39659,-1.67316 10.38406,-4.53789 14.78631,-8.07948 7.04261,-5.66575 12.67091,-13.16963 15.70806,-21.68285 3.03715,-8.51321 3.40882,-18.028623 0.61069,-26.623365 C 148.3816,78.056888 138.64975,68.583785 127.2258,63.546351 115.80185,58.508916 102.84764,57.617773 90.490211,59.4 74.281183,61.737716 58.761106,68.610923 46.085481,78.980399 33.409855,89.349874 23.607384,103.18005 17.946383,118.54724 c -4.944328,13.42173 -6.741072,28.04041 -4.802553,42.21191 1.937465,14.1638 7.597784,27.77084 16.074633,39.28214 8.47685,11.5113 19.73728,20.92195 32.456428,27.44807 19.379766,9.94364 42.424999,13.04352 63.444259,7.33022 20.73312,-5.63552 38.83159,-19.65587 50.55318,-37.66214 7.01997,-10.78382 11.86317,-22.97829 14.1549,-35.63999"
       id="path2"
       sodipodi:nodetypes="ccssssssssc"
       inkscape:original-d="m 114.51476,106.97366 c -6.97198,0.68204 -32.672752,12.72234 -30.204135,16.50762 2.490611,3.81894 47.537355,13.09159 51.617295,14.75379 8.45478,3.2096 20.27497,-37.43084 16.31875,-48.306215 C 148.0091,78.280096 112.68605,57.005544 90.490211,59.4 c -5.207982,0.762145 -56.871257,-3.5431 -72.543828,59.14724 -2.21292,8.85167 -5.052658,33.15357 -4.802553,42.21191 0.558294,20.22033 35.596058,73.65428 48.531061,66.73021 6.837235,-3.65995 51.969759,12.38842 63.444259,7.33022 18.65728,-8.22452 42.09659,-23.5717 50.55318,-37.66214 5.26068,-8.76537 10.94254,-28.89062 14.1549,-35.63999"
       inkscape:path-effect="#path-effect2"
       transform="matrix(0.84107328,0,0,0.84107328,18.594016,20.982278)" />
    <path
       style="fill:none;fill-opacity:1;stroke:#2da363;stroke-width:5;stroke-linecap:round;stroke-linejoin:bevel;stroke-dasharray:none;stroke-opacity:1;paint-order:normal"
       d="m 189.57445,162.02299 c -2.83846,5.8562 -7.2359,10.94794 -12.61659,14.60857 -5.38068,3.66064 -11.73146,5.88121 -18.22084,6.371 -9.05068,0.6831 -18.31914,-2.0699 -25.52937,-7.58298"
       id="path4"
       sodipodi:nodetypes="csc"
       inkscape:original-d="m 189.57445,162.02299 c -0.33702,0 -29.55772,21.47208 -30.83743,20.97957 -1.61134,-0.62014 -26.25101,-6.86134 -25.52937,-7.58298"
       inkscape:path-effect="#path-effect5"
       transform="matrix(0.84107328,0,0,0.84107328,18.594016,20.982278)" />
    <path
       style="fill:none;fill-opacity:1;stroke:#2da363;stroke-width:5;stroke-linecap:round;stroke-linejoin:bevel;stroke-dasharray:none;stroke-opacity:1;paint-order:normal"
       d="m 190.10363,170.36425 c -8.03759,8.38725 -19.75945,13.11025 -31.36661,12.63831 -13.57119,-0.5518 -26.64092,-8.31503 -33.61787,-19.96852 l 0.50553,1.01106"
       id="path5"
       inkscape:path-effect="#path-effect7"
       inkscape:original-d="m 190.10363,170.36425 c -0.33702,0 -30.0869,13.13082 -31.36661,12.63831 -1.61134,-0.62014 -33.61787,-19.96852 -33.61787,-19.96852 0.43107,-0.0789 0.50553,1.36574 0.50553,1.01106"
       sodipodi:nodetypes="cssc"
       transform="matrix(0.84107328,0,0,0.84107328,-74.735053,23.108226)" />
    <path
       style="fill:none;fill-opacity:1;stroke:#2da363;stroke-width:5;stroke-linecap:round;stroke-linejoin:bevel;stroke-dasharray:none;stroke-opacity:1;paint-order:normal"
       d="m 185.78297,173.39745 c -7.04974,6.36433 -16.53785,9.95692 -26.03489,9.85788 -10.31312,-0.10755 -20.50925,-4.59759 -27.55149,-12.13278"
       id="path7"
       inkscape:path-effect="#path-effect9"
       inkscape:original-d="m 185.78297,173.39745 c -0.33702,0 -24.75518,10.35039 -26.03489,9.85788 -1.61134,-0.62014 -27.55149,-12.13278 -27.55149,-12.13278"
       sodipodi:nodetypes="csc"
       transform="matrix(0.84107328,0,0,0.84107328,-25.838274,22.470442)" />
    <path
       style="fill:#2da363;fill-opacity:1;stroke:#2da363;stroke-width:18.0536;stroke-linecap:round;stroke-linejoin:bevel"
       d="m 330.06857,624.7072 c -1.57631,-0.21688 -6.95007,-0.86375 -11.9417,-1.43749 C 231.68335,613.33384 149.35079,558.70905 105.87002,482.44465 97.876758,468.42463 86.087841,442.37216 87.223195,441.2368 c 0.227477,-0.22747 2.727752,1.45816 5.556167,3.74585 16.954608,13.71333 38.877478,24.12367 61.068408,28.99908 12.67609,2.78498 41.89575,2.54277 55.3708,-0.45897 22.34698,-4.97808 43.08337,-14.98477 60.50858,-29.19944 l 5.57676,-4.54926 4.45427,3.74909 c 16.58835,13.96218 38.24875,24.32183 60.63909,29.00223 13.38272,2.79747 34.43119,2.84131 47.98429,0.0999 18.3952,-3.72078 34.95592,-10.58665 49.87491,-20.67752 4.33268,-2.93053 8.10287,-5.32825 8.37817,-5.32825 0.27531,0 2.2813,1.12414 4.45778,2.49809 11.7526,7.41909 28.1769,14.00027 43.03773,17.24512 11.25769,2.4581 39.0394,2.43332 50.41134,-0.045 20.98299,-4.57281 40.05972,-13.8478 56.32773,-27.38618 3.17301,-2.6406 5.7691,-4.28985 5.7691,-3.66499 0,2.45086 -9.18506,24.01106 -15.8691,37.24969 -29.88736,59.19592 -78.70483,106.08689 -137.46232,132.03758 -18.75506,8.28333 -41.74711,14.92345 -63.52984,18.34749 -9.53873,1.49939 -52.49357,2.79851 -59.70849,1.80581 z"
       id="path6"
       transform="matrix(0.26458333,0,0,0.26458333,12.386112,53.155311)" />
  </g>
</svg>
