<?xml version="1.0" encoding="UTF-8" standalone="no"?>
<svg xmlns="http://www.w3.org/2000/svg" xmlns:xlink="http://www.w3.org/1999/xlink" version="1.1" width="573.00359" height="623.54971" viewBox="-63.90752 199.95029 573.00359 623.54971"><defs><linearGradient x1="214.07007" y1="229.40664" x2="226.38584" y2="578.44109" gradientUnits="userSpaceOnUse" id="color-1"><stop offset="0" stop-color="#ffffff"/><stop offset="1" stop-color="#21d08f"/></linearGradient><linearGradient x1="316.05006" y1="426.16402" x2="326.8998" y2="840.62407" gradientUnits="userSpaceOnUse" id="color-2"><stop offset="0" stop-color="#64bf8d"/><stop offset="1" stop-color="#59b0a6"/></linearGradient></defs><g fill="none" fill-rule="nonzero" stroke="none" stroke-width="1" stroke-linecap="butt" stroke-linejoin="miter" stroke-miterlimit="10" font-family="none" font-weight="none" font-size="none"><g fill="url(#color-1)"><path d="M157.59201,384.7238l-40.05742,64.66333c-11.5856,18.70224 -34.75678,18.70223 -46.34237,-0.00002l-21.8308,-35.24079c16.75422,-42.83798 34.99993,-82.63626 54.58808,-116.0158c65.12112,-110.97081 145.07937,-150.99906 234.39751,4.07448c17.60828,30.57137 36.00127,69.80092 54.29512,116.48868l-19.0139,30.69345c-11.5856,18.70224 -34.75679,18.70223 -46.34238,-0.00002l-40.05731,-64.66331l-40.05742,64.66333c-11.5856,18.70224 -34.75678,18.70223 -46.34237,-0.00002z" id="Path-1"/></g><g fill="url(#color-2)"><path d="M200.82876,449.38711c11.58559,18.70225 34.75678,18.70226 46.34238,0.00002l40.05741,-64.66333l40.0573,64.66331c11.58559,18.70225 34.75678,18.70226 46.34238,0.00002l19.01388,-30.69345c37.58307,96.15889 76.52224,228.34708 116.45396,404.80632h-573.00359c16.64582,-83.20704 56.35038,-263.82159 113.26894,-409.35368l21.8308,35.24079c11.58559,18.70225 34.75677,18.70226 46.34237,0.00002l40.05742,-64.66333z" id="Path-1-1"/></g></g></svg>