<?xml version="1.0" encoding="UTF-8" standalone="no"?>
<svg xmlns="http://www.w3.org/2000/svg" xmlns:xlink="http://www.w3.org/1999/xlink" version="1.1" width="220.14166" height="152.68544" viewBox="113.93014 397.21285 220.14166 152.68544"><g fill="none" fill-rule="nonzero" stroke="none" stroke-width="1" stroke-linecap="none" stroke-linejoin="none" stroke-miterlimit="10" font-family="none" font-weight="none" font-size="none"><path d="M199.48955,549.89829h-29.33334v-2.79989l29.33334,-10.20084v-16.05481v-23.96892l-0.00001,-17.62554v-17.11131h53.16558l-6.4394,17.11131l-17.97593,41.59446l-2.32397,5.41546l-0.73112,1.7037l-9.41368,21.93638z" id="Path-1" fill="#d9f0ff"/><path d="M166.84012,478.65981l2.13487,0.58848z" id="Path-1-1" fill="#ffffff"/><path d="M296.75404,466.11627v-10.7013h33.26866c2.01877,3.16563 3.369,6.79905 3.85173,10.7013z" id="Path-1-2" fill="#ffffff"/><path d="M296.75404,455.41497v-6.64933h2.82616l24.34845,-0.00001c2.3975,1.84154 4.46377,4.09292 6.09405,6.64934c0.80943,1.26927 1.43555,2.64512 2.0172,4.05197h-1.00861h-2.66112h-31.61613z" id="Path-1-3" fill="#8daeb5"/><path d="M332.0399,459.46694c0.95397,2.4351 1.62829,5.1078 1.92908,7.53932c0.06806,0.76567 0.10282,1.54092 0.10282,2.32429c0,3.513 -0.69899,6.86275 -1.96548,9.91774h-40.76189h-7.1383h-31.55101h-6.4394l6.4394,-17.11131h-53.16557l-0.00001,17.11131h-30.51454l-2.13488,-0.58847l-45.43193,-12.52326l-7.12329,-2.16418l-0.35476,-9.8561v-9.25474h4.11834v-13.27025v-21.1165v-13.26194h20.51979l1.45041,7.02099l6.43105,27.35745l1.1128,4.73379l2.92668,0.91839l19.66699,6.17151h138.00003c5.93473,0 11.40352,1.99488 15.77241,5.35066h-27.1746v10.7013z" id="Path-1-4" fill="#dbfbff"/></g></svg>